<?xml version="1.0" standalone="no"?>
<!DOCTYPE svg PUBLIC "-//W3C//DTD SVG 20010904//EN"
 "http://www.w3.org/TR/2001/REC-SVG-20010904/DTD/svg10.dtd">
<svg version="1.0" xmlns="http://www.w3.org/2000/svg"
 width="1080.000000pt" height="986.000000pt" viewBox="0 0 1080.000000 986.000000"
 preserveAspectRatio="xMidYMid meet">

<g transform="translate(0.000000,986.000000) scale(0.100000,-0.100000)"
fill="#000000" stroke="none">
<path d="M5 9215 c0 -357 1 -502 2 -322 2 181 2 473 0 650 -1 177 -2 30 -2
-328z"/>
<path d="M6660 7370 c-1910 -5 -2068 -6 -2091 -22 -15 -9 -34 -33 -43 -53 -16
-33 -18 -159 -28 -1689 -6 -910 -8 -1661 -5 -1669 5 -13 347 -15 2891 -16
2596 -1 2887 0 2892 14 4 9 2 766 -4 1684 -9 1569 -11 1670 -27 1695 -10 15
-32 35 -49 44 -37 20 -201 21 -3536 12z m3428 -342 c2 -175 4 -187 22 -193 30
-9 70 -63 70 -94 0 -32 -23 -56 -64 -67 l-29 -7 4 -1276 4 -1276 -2707 -3
-2708 -2 0 957 c0 527 3 1225 7 1550 l6 593 1576 3 c867 1 2080 2 2696 2
l1120 0 3 -187z"/>
<path d="M10026 6633 c-35 -109 -56 -217 -71 -363 -16 -153 -47 -305 -66 -325
-7 -7 -14 -4 -20 8 -9 16 -39 24 -39 11 0 -16 55 -104 65 -104 6 0 25 53 43
118 38 142 39 145 52 301 7 72 24 173 42 240 44 169 42 161 25 161 -10 0 -21
-18 -31 -47z"/>
<path d="M9260 6586 c0 -26 -51 -258 -87 -398 -25 -97 -43 -184 -40 -192 11
-29 24 -17 35 32 5 26 28 117 50 202 46 179 75 327 68 346 -5 13 -26 20 -26
10z"/>
<path d="M9320 6570 c0 -7 16 -46 36 -88 48 -101 136 -310 232 -550 56 -139
81 -192 92 -190 8 2 40 51 70 109 30 58 59 112 64 119 7 10 5 12 -8 7 -10 -4
-23 -7 -30 -7 -7 0 -18 -16 -25 -35 -16 -46 -61 -125 -70 -125 -4 0 -29 53
-54 118 -60 151 -123 305 -148 362 -11 25 -44 99 -73 165 -33 74 -60 121 -70
123 -9 2 -16 -2 -16 -8z"/>
<path d="M5053 6408 l2 -113 75 0 c60 0 75 3 75 15 0 11 -14 16 -52 18 -51 3
-53 4 -53 32 0 27 3 29 43 32 29 2 42 8 42 18 0 11 -13 16 -43 18 -40 3 -43 5
-40 30 3 24 6 26 51 25 40 -1 47 2 47 18 0 17 -8 19 -74 19 l-75 0 2 -112z"/>
<path d="M5332 6408 c3 -98 5 -113 21 -116 15 -3 17 5 17 62 0 36 4 66 9 66 5
0 33 -29 61 -65 29 -36 57 -64 64 -62 7 2 12 44 14 115 3 107 2 112 -18 112
-18 0 -20 -6 -20 -65 0 -36 -4 -65 -9 -65 -5 0 -31 29 -57 65 -27 35 -57 64
-67 65 -16 0 -17 -10 -15 -112z"/>
<path d="M5720 6444 c0 -91 -11 -116 -48 -112 -36 4 -43 -27 -8 -36 32 -8 72
8 85 33 6 11 11 58 11 105 0 79 -2 86 -20 86 -18 0 -20 -7 -20 -76z"/>
<path d="M5922 6492 c-43 -40 -50 -89 -21 -141 53 -95 189 -59 189 51 0 50
-18 87 -51 104 -44 22 -83 17 -117 -14z m110 -29 c21 -19 24 -79 5 -104 -30
-40 -89 -30 -108 18 -11 29 4 88 24 97 25 10 61 5 79 -11z"/>
<path d="M6210 6510 c0 -6 15 -36 32 -68 18 -31 35 -77 38 -102 7 -62 33 -62
40 0 3 25 20 73 38 107 38 73 38 73 13 73 -12 0 -26 -16 -42 -50 -13 -27 -26
-50 -30 -50 -3 0 -16 23 -29 50 -16 33 -30 50 -42 50 -10 0 -18 -5 -18 -10z"/>
<path d="M6694 6453 c18 -38 36 -88 40 -112 7 -51 10 -56 31 -48 10 4 15 20
15 48 0 30 11 62 35 106 19 35 35 66 35 68 0 3 -9 5 -20 5 -14 0 -27 -15 -45
-50 -14 -28 -30 -48 -35 -45 -4 3 -16 25 -26 50 -13 36 -22 45 -40 45 l-24 0
34 -67z"/>
<path d="M6994 6486 c-28 -28 -34 -42 -34 -75 0 -103 105 -153 175 -84 68 69
21 193 -72 193 -26 0 -43 -8 -69 -34z m113 -18 c31 -39 21 -108 -17 -128 -62
-33 -118 55 -74 118 17 25 75 31 91 10z"/>
<path d="M7290 6451 c0 -88 13 -124 54 -146 28 -15 38 -16 70 -5 49 16 66 55
66 150 0 63 -2 70 -20 70 -18 0 -20 -7 -20 -73 0 -86 -17 -120 -58 -115 -37 4
-52 40 -52 121 0 60 -2 67 -20 67 -18 0 -20 -7 -20 -69z"/>
<path d="M7613 6408 c2 -106 3 -113 22 -113 16 0 21 8 23 38 3 31 7 37 26 37
16 0 27 -10 39 -35 31 -65 72 -60 42 4 -16 36 -16 41 -1 62 22 32 20 71 -4 97
-17 18 -32 22 -85 22 l-63 0 1 -112z m119 66 c12 -8 10 -38 -4 -52 -7 -7 -25
-12 -40 -12 -25 0 -28 3 -28 33 0 19 3 36 6 40 6 6 52 0 66 -9z"/>
<path d="M8077 6513 c-9 -8 -9 -186 -1 -207 8 -22 79 -21 124 2 74 36 82 141
16 194 -21 18 -125 26 -139 11z m126 -54 c20 -24 22 -61 6 -92 -16 -29 -28
-37 -61 -37 l-28 0 0 73 c0 41 3 76 6 80 11 11 59 -4 77 -24z"/>
<path d="M8407 6413 c-43 -123 -43 -123 -21 -123 9 0 21 14 27 30 10 27 16 30
52 30 36 0 42 -3 52 -30 11 -29 43 -42 43 -18 0 6 -16 58 -36 115 -31 88 -40
103 -58 103 -19 0 -27 -16 -59 -107z m79 -1 c6 -30 4 -32 -20 -32 -29 0 -32
13 -16 56 13 32 27 23 36 -24z"/>
<path d="M8660 6505 c0 -8 6 -16 13 -16 6 -1 17 -2 22 -4 6 -1 15 -3 22 -3 8
-2 13 -31 15 -94 3 -85 5 -93 23 -93 18 0 20 7 21 87 2 94 7 110 32 106 10 -1
23 1 30 5 30 19 6 27 -83 27 -78 0 -95 -3 -95 -15z"/>
<path d="M8986 6417 c-20 -57 -36 -109 -36 -115 0 -25 31 -11 41 18 10 27 15
30 53 30 37 0 43 -3 53 -30 10 -28 43 -43 43 -20 0 5 -16 51 -35 102 -19 51
-35 99 -35 106 0 6 -11 12 -24 12 -21 0 -27 -12 -60 -103z m84 -24 c0 -7 -11
-13 -25 -13 -28 0 -31 13 -14 57 l11 28 14 -30 c7 -16 13 -36 14 -42z"/>
<path d="M8768 6218 c-30 -35 -94 -111 -144 -169 -49 -58 -109 -129 -134 -158
-57 -68 -63 -78 -49 -87 11 -7 35 15 94 87 45 53 225 266 257 303 l34 39 53
-64 c134 -163 157 -189 168 -189 22 0 22 16 0 41 -50 55 -126 147 -166 202
-24 31 -47 57 -51 57 -5 0 -33 -28 -62 -62z"/>
<path d="M9780 6063 c8 -4 30 -14 48 -24 17 -10 32 -15 32 -11 0 12 -56 42
-77 41 -14 0 -15 -2 -3 -6z"/>
<path d="M9743 6041 c-8 -12 -7 -22 2 -34 11 -16 13 -16 19 -2 3 9 2 13 -4 10
-6 -3 -10 1 -10 9 0 8 8 16 18 18 15 3 15 4 1 10 -9 3 -20 -1 -26 -11z"/>
<path d="M9850 5994 c0 -8 5 -12 10 -9 6 4 8 11 5 16 -9 14 -15 11 -15 -7z"/>
<path d="M7474 5826 c-26 -19 -115 -466 -116 -581 0 -54 3 -62 31 -87 43 -38
116 -41 164 -7 16 12 34 18 40 14 7 -3 23 -12 37 -20 33 -19 90 -19 118 1 19
13 28 14 52 4 17 -7 47 -10 72 -6 24 3 59 6 79 6 45 -1 50 6 84 105 15 44 40
103 56 130 34 60 85 122 93 114 4 -4 -5 -64 -19 -134 -21 -103 -24 -133 -15
-160 21 -63 98 -90 156 -56 43 26 49 26 74 1 30 -30 108 -28 146 5 34 29 33
29 70 10 68 -35 137 -9 179 68 22 41 15 67 -19 67 -19 0 -33 -12 -57 -47 -18
-27 -34 -50 -36 -53 -3 -3 -11 4 -19 14 -22 30 -17 97 20 276 47 226 48 255
12 271 -42 20 -57 0 -85 -112 l-26 -104 -43 3 c-87 7 -166 -87 -192 -227 -11
-57 -51 -121 -76 -121 -21 0 -18 47 11 173 26 114 23 146 -13 173 -32 25 -96
17 -138 -16 l-38 -31 -13 26 c-10 18 -22 25 -43 25 -38 0 -43 -12 -65 -135
-19 -111 -41 -170 -74 -199 -16 -15 -24 -17 -33 -8 -8 8 -7 33 6 96 10 46 15
89 12 95 -4 6 -23 11 -41 11 -38 0 -47 -12 -70 -85 -18 -61 -64 -137 -77 -129
-6 4 -9 37 -6 90 4 71 10 94 39 151 25 50 40 69 57 71 18 3 22 -1 22 -21 0
-32 22 -49 57 -45 38 4 41 36 8 76 -30 35 -82 56 -119 46 -59 -14 -124 -105
-158 -219 -16 -55 -33 -88 -63 -122 -25 -29 -46 -44 -53 -39 -18 11 -14 89 9
196 46 217 79 406 74 426 -6 25 -48 37 -71 20z m1063 -433 c-5 -70 -61 -196
-89 -201 -52 -10 -21 211 40 281 15 16 16 16 35 0 16 -15 19 -27 14 -80z"/>
<path d="M5710 5803 c-71 -11 -111 -26 -108 -42 4 -18 45 -20 159 -6 88 10
194 -20 233 -65 56 -67 55 -171 -3 -296 -36 -77 -89 -131 -165 -167 -63 -30
-133 -41 -129 -20 2 7 24 119 50 249 47 231 47 236 28 250 -31 23 -74 18 -79
-8 -2 -13 -18 -88 -35 -168 -70 -338 -75 -368 -60 -386 15 -18 116 -19 184 0
74 19 175 72 218 114 140 136 169 354 61 456 -76 72 -225 109 -354 89z"/>
<path d="M6601 5687 c-6 -8 -16 -42 -23 -78 -10 -50 -18 -66 -35 -74 -27 -11
-29 -23 -8 -39 14 -10 13 -22 -5 -111 -14 -69 -29 -112 -48 -139 -52 -76 -72
-49 -46 63 18 82 11 101 -37 101 -31 0 -40 -11 -65 -86 -23 -71 -64 -138 -76
-126 -14 14 -11 120 6 174 19 64 63 138 82 138 8 0 20 -14 26 -30 16 -47 88
-56 88 -11 0 51 -89 109 -144 95 -38 -9 -101 -78 -133 -143 -24 -48 -28 -69
-28 -144 0 -87 0 -89 33 -118 38 -34 102 -40 141 -12 19 13 28 14 42 5 27 -17
96 -15 125 4 23 16 26 15 44 -1 33 -30 116 -31 170 -2 l45 24 44 -24 c55 -29
129 -30 188 -4 l42 19 3 -21 c2 -17 11 -23 35 -25 33 -3 53 11 83 57 l16 24
46 -33 c37 -26 51 -31 77 -25 35 7 41 30 11 40 -19 6 -70 90 -70 115 0 6 27
56 61 111 33 55 59 108 57 117 -2 11 -14 18 -33 20 -26 2 -35 -4 -68 -53 -39
-57 -57 -63 -57 -19 0 44 -17 64 -55 64 -45 0 -48 -15 -30 -120 20 -112 20
-110 -15 -110 -16 0 -34 -6 -40 -12 -6 -7 -20 -25 -33 -39 -33 -41 -96 -79
-128 -79 -37 0 -61 44 -57 101 3 39 5 41 56 58 83 29 132 87 132 160 0 36 -49
81 -88 81 -31 0 -87 -31 -113 -63 -35 -43 -78 -144 -85 -200 -6 -50 -12 -62
-45 -92 -22 -19 -49 -35 -60 -35 -21 0 -21 4 -17 78 3 42 13 109 22 148 l17
71 42 9 c50 11 57 36 12 44 l-30 5 4 69 c2 50 0 71 -10 77 -21 13 -55 11 -68
-4z m325 -211 c-7 -28 -44 -76 -58 -76 -16 0 1 51 30 89 26 35 39 30 28 -13z"/>
<path d="M1169 6241 c-19 -15 -23 -28 -22 -69 0 -27 9 -74 19 -103 10 -30 18
-82 19 -116 l0 -63 55 -2 c30 -1 67 -2 81 -2 14 -1 33 -8 42 -18 9 -9 21 -18
26 -20 5 -1 12 -18 16 -36 7 -32 6 -33 -14 -23 -11 6 -18 17 -15 25 3 7 -2 16
-12 20 -13 5 -15 2 -10 -20 7 -25 5 -26 -23 -21 -35 7 -63 -16 -36 -30 13 -7
14 -15 6 -35 -7 -19 -7 -28 2 -32 7 -4 1 -4 -13 0 -14 3 -48 8 -76 11 -47 5
-52 3 -57 -18 -4 -13 -3 -27 2 -32 18 -18 160 -2 167 19 14 47 15 47 26 36 7
-7 25 -12 41 -12 26 0 29 -3 25 -25 -6 -31 7 -42 20 -18 9 16 15 15 88 -5 43
-12 78 -20 79 -19 0 1 8 17 17 34 16 32 16 33 -3 44 -11 5 -32 9 -47 7 -18 -2
-27 2 -28 12 -1 8 -3 20 -4 25 -2 6 -3 17 -4 25 -1 10 -14 16 -38 18 -23 2
-41 10 -47 20 -4 9 -11 58 -13 107 -6 104 -25 155 -88 239 -68 90 -131 117
-181 77z m132 -70 c61 -64 94 -135 105 -228 9 -69 2 -88 -26 -71 -11 7 -20 20
-20 30 0 28 -49 78 -77 78 -18 0 -24 -4 -20 -15 4 -8 2 -17 -3 -20 -6 -4 -10
2 -10 12 0 11 -4 23 -9 29 -15 15 -51 158 -51 202 0 39 2 42 27 42 20 0 42
-15 84 -59z"/>
<path d="M1765 5743 c-28 -7 -62 -41 -74 -73 -8 -23 -6 -32 10 -46 25 -23 17
-70 -16 -101 l-24 -21 35 -57 c19 -32 34 -61 34 -65 0 -16 31 -40 51 -40 12 0
23 10 29 28 5 15 16 40 25 55 19 35 19 57 2 57 -8 0 -22 9 -32 20 -22 24 -15
82 12 112 24 27 104 65 126 60 25 -5 21 15 -5 30 -70 39 -126 52 -173 41z"/>
<path d="M2375 5725 c-5 -1 -36 -8 -67 -15 -40 -9 -62 -20 -73 -36 -8 -13 -11
-25 -7 -28 4 -2 6 -34 5 -71 -2 -44 1 -64 8 -59 8 4 9 -1 3 -17 -17 -54 -11
-91 22 -126 30 -32 32 -39 34 -116 3 -107 3 -107 -20 -107 -24 0 -22 -6 -25
98 -1 45 -5 85 -8 88 -3 4 -17 4 -31 0 -28 -7 -43 -53 -28 -83 5 -10 7 -38 3
-63 -6 -43 -7 -45 -46 -51 -56 -9 199 -10 386 -2 l156 6 -12 24 c-7 14 -11 45
-8 79 6 70 -21 192 -53 239 -27 41 -31 77 -9 95 20 17 19 63 -2 83 -40 36
-184 75 -228 62z m-60 -225 c0 -18 -6 -26 -23 -28 -27 -4 -40 22 -22 44 19 22
45 13 45 -16z m305 -75 c0 -8 -4 -15 -10 -15 -5 0 -10 7 -10 15 0 8 5 15 10
15 6 0 10 -7 10 -15z m-210 -45 c0 -5 -7 -10 -16 -10 -8 0 -12 5 -9 10 3 6 10
10 16 10 5 0 9 -4 9 -10z m78 -152 l-1 -73 -7 65 c-3 36 -5 68 -3 73 10 18 13
2 11 -65z"/>
<path d="M1913 5618 c-4 -7 -8 -15 -8 -18 0 -3 -11 -27 -24 -53 -26 -53 -23
-75 5 -30 9 15 33 43 53 61 l36 34 -28 -5 c-22 -3 -25 -2 -16 9 8 10 8 14 1
14 -6 0 -14 -6 -19 -12z"/>
<path d="M410 5415 c-41 -24 -80 -47 -85 -52 -6 -5 -19 -15 -30 -21 -16 -10
-6 -11 55 -7 80 7 107 15 47 15 -20 0 -37 3 -37 8 0 4 28 23 61 42 57 33 92
61 73 59 -5 0 -43 -20 -84 -44z"/>
<path d="M0 5391 c0 -11 10 -16 28 -17 82 -3 108 -34 49 -59 l-32 -14 30 1
c33 0 98 15 78 17 -22 2 -14 20 15 36 25 15 26 16 3 11 -13 -3 -38 2 -55 11
-17 9 -50 20 -73 23 -35 6 -43 4 -43 -9z"/>
<path d="M442 5343 c3 -19 5 -19 -245 -48 -71 -8 -139 -18 -153 -21 -33 -8
-25 -30 9 -26 40 5 33 -12 -13 -33 -46 -21 -52 -47 -18 -74 22 -19 17 -46 -8
-37 -11 4 -14 -7 -14 -49 0 -50 2 -55 21 -55 12 0 27 -8 34 -17 11 -15 14 -13
26 12 8 16 18 29 24 28 5 -1 37 -70 70 -155 34 -84 68 -167 77 -183 18 -33 84
-191 189 -445 60 -148 66 -166 51 -177 -24 -19 -82 -16 -98 5 -12 16 -13 15
-14 -5 0 -12 -5 -23 -11 -25 -11 -4 1 -68 21 -113 19 -43 48 -133 60 -185 20
-92 90 -331 115 -395 13 -33 26 -73 29 -88 4 -16 20 -41 35 -55 25 -24 91
-176 91 -210 0 -18 -27 -15 -34 4 -4 9 -11 12 -18 7 -7 -4 -21 -6 -32 -4 -25
4 -38 -19 -22 -39 10 -11 11 -33 5 -90 -7 -69 -6 -107 7 -167 4 -20 11 -23 47
-23 l42 0 -2 37 c-1 21 -2 42 -2 47 -1 4 -8 6 -16 2 -11 -4 -15 2 -15 25 0 18
4 28 10 24 6 -4 10 10 10 35 0 23 -4 39 -9 36 -5 -3 -8 6 -8 20 0 33 58 74
107 74 20 0 41 5 46 10 8 8 15 6 24 -5 18 -21 48 -19 87 8 36 24 42 41 17 51
-20 8 -34 -1 -34 -20 0 -8 -6 -14 -13 -14 -12 0 -23 29 -76 208 -6 20 -14 24
-54 27 -27 1 -50 5 -53 8 -3 2 -7 22 -9 43 -2 22 -4 41 -4 43 -1 3 -14 -8 -31
-24 -16 -16 -31 -27 -33 -24 -10 13 -67 197 -67 214 1 20 1 20 15 1 8 -11 15
-16 15 -10 0 5 5 1 11 -9 5 -9 7 -22 3 -29 -4 -7 -3 -8 4 -4 7 4 12 2 12 -4 0
-22 42 -65 68 -70 22 -4 28 -11 30 -38 2 -17 7 -32 11 -32 15 0 31 25 31 47 0
14 6 23 15 23 21 0 19 33 -4 78 -10 20 -33 75 -51 122 -18 47 -52 126 -76 177
-24 51 -44 97 -44 103 0 6 -16 53 -36 105 -29 74 -40 94 -53 90 -13 -4 -16 3
-17 33 -1 20 -18 80 -37 132 -19 52 -40 115 -48 139 -7 24 -20 53 -29 65 -8
11 -24 45 -34 75 -20 58 -70 160 -111 226 -22 37 -95 211 -110 263 -5 16 -2
22 10 22 11 0 15 5 12 15 -4 8 -2 17 2 20 5 3 11 -2 15 -10 6 -16 61 -21 70
-6 3 5 3 22 0 39 -6 29 -7 30 -72 31 -71 1 -92 12 -119 65 -14 28 -14 30 8 48
42 34 87 48 156 49 66 0 97 4 233 29 36 6 79 12 95 12 17 1 44 7 61 14 18 7
36 9 44 4 18 -11 50 6 50 25 0 18 -12 19 -28 3 -9 -9 -15 -9 -24 0 -7 7 -40
12 -80 12 -53 0 -68 -3 -68 -15 0 -17 -36 -39 -44 -26 -4 5 -3 16 0 25 4 12 0
16 -15 16 -15 0 -21 -5 -19 -17z m58 -1352 c0 -16 40 -116 89 -222 86 -189
120 -283 108 -296 -4 -3 -24 32 -46 78 -92 199 -193 404 -211 430 -11 15 -20
30 -20 33 0 3 18 6 40 6 37 0 40 -2 40 -29z m160 -742 c0 -6 -4 -7 -10 -4 -5
3 -10 11 -10 16 0 6 5 7 10 4 6 -3 10 -11 10 -16z m105 -44 c0 -5 -10 -11 -22
-13 -16 -2 -23 2 -23 13 0 11 7 15 23 13 12 -2 22 -7 22 -13z m75 -150 c-1
-17 -4 -16 -26 10 -29 35 -39 68 -29 92 6 14 12 7 31 -32 13 -27 24 -59 24
-70z"/>
<path d="M190 5320 c-9 -6 -10 -10 -3 -10 6 0 15 5 18 10 8 12 4 12 -15 0z"/>
<path d="M1816 5292 c-3 -4 -1 -39 3 -78 l8 -69 2 78 c1 73 -2 87 -13 69z"/>
<path d="M1845 4953 c-21 -104 -40 -198 -43 -210 -3 -17 0 -23 13 -23 14 0 16
6 12 28 -3 15 12 109 33 210 20 100 34 182 31 182 -4 0 -25 -84 -46 -187z"/>
<path d="M1918 5133 c6 -2 18 -2 25 0 6 3 1 5 -13 5 -14 0 -19 -2 -12 -5z"/>
<path d="M2442 4840 c0 -19 2 -27 5 -17 2 9 2 25 0 35 -3 9 -5 1 -5 -18z"/>
<path d="M166 4715 c9 -30 34 -124 45 -175 6 -25 17 -59 25 -77 8 -17 14 -36
14 -42 0 -7 7 -28 17 -49 9 -20 17 -39 18 -42 1 -3 8 -21 17 -41 9 -20 19 -50
23 -67 3 -17 18 -53 31 -79 30 -57 35 -75 -71 249 -47 145 -94 281 -105 303
-11 22 -18 31 -14 20z"/>
<path d="M2352 4623 c-11 -49 -28 -124 -39 -168 l-18 -80 -5 90 c-5 85 -6 90
-29 93 -13 2 -27 0 -32 -5 -4 -4 -13 -84 -19 -178 -6 -93 -13 -194 -16 -222
l-5 -53 -64 0 c-64 0 -94 -13 -52 -23 12 -4 82 -9 155 -13 112 -6 132 -9 132
-23 0 -9 11 -25 25 -35 28 -21 35 -66 9 -66 -12 0 -15 -6 -10 -24 8 -33 -5
-39 -47 -21 -19 8 -37 11 -41 8 -11 -11 7 -58 31 -76 15 -12 23 -29 23 -50 0
-18 2 -54 6 -82 5 -47 5 -49 -10 -30 -15 19 -15 19 -16 -12 0 -17 7 -38 15
-47 19 -19 19 -76 0 -90 -11 -8 -17 -38 -21 -101 -10 -148 -12 -175 -22 -300
-10 -129 -9 -139 20 -171 19 -21 19 -22 -1 -58 -12 -20 -21 -46 -21 -57 0 -16
-5 -19 -19 -14 -14 4 -23 0 -31 -15 -10 -18 -21 -20 -118 -21 -87 -1 -99 -3
-62 -10 25 -4 119 -8 209 -8 l164 -1 -7 153 c-5 117 -19 1090 -17 1143 1 6 -9
9 -22 7 -21 -4 -22 -2 -19 39 10 118 31 271 40 280 17 17 39 -2 34 -28 -4 -24
-2 -25 29 -22 30 3 34 6 35 33 1 17 11 83 23 148 28 149 26 172 -13 172 -24 0
-31 -5 -38 -30 -4 -16 -14 -43 -22 -60 -8 -16 -19 -46 -24 -65 -10 -34 -10
-34 -12 20 l-2 55 -9 -54 c-11 -63 -12 -66 -35 -57 -15 6 -16 17 -10 96 4 50
9 97 12 105 4 8 2 15 -4 15 -6 0 -19 -39 -30 -87z m-2 -753 c0 -5 -7 -10 -16
-10 -8 0 -12 5 -9 10 3 6 10 10 16 10 5 0 9 -4 9 -10z"/>
<path d="M2308 4033 c7 -3 16 -2 19 1 4 3 -2 6 -13 5 -11 0 -14 -3 -6 -6z"/>
<path d="M7417 3802 c-10 -10 -17 -26 -17 -35 0 -14 -6 -16 -25 -11 -58 14
-100 -56 -76 -128 22 -63 35 -72 106 -74 59 -2 67 1 85 23 24 31 26 56 5 73
-17 14 -20 46 -5 55 6 3 10 15 10 26 0 14 -9 21 -30 25 -25 5 -28 9 -20 25 22
40 -2 55 -33 21z"/>
<path d="M506 3390 c4 -25 13 -63 21 -85 8 -22 23 -67 32 -100 10 -33 25 -77
34 -97 10 -21 17 -47 17 -58 0 -23 26 -38 40 -24 6 6 -7 54 -32 119 -22 61
-48 133 -58 160 -10 28 -28 68 -40 90 l-21 40 7 -45z"/>
<path d="M6788 3333 c-6 -70 7 -93 53 -93 20 0 40 6 43 13 3 8 10 6 24 -9 16
-19 31 -22 118 -25 l99 -4 -2 25 c-1 14 1 19 4 12 3 -9 16 -3 40 18 28 25 42
30 71 28 37 -3 37 -3 40 -54 l3 -51 112 -5 c62 -3 186 -3 277 0 91 3 202 5
248 6 79 0 83 1 77 20 -3 12 -8 54 -12 94 -4 48 -10 72 -19 72 -7 0 -15 -6
-18 -12 -5 -10 -7 -10 -12 0 -4 9 -80 12 -330 12 -281 0 -324 -2 -324 -15 0
-11 -11 -15 -40 -15 -22 0 -40 5 -40 10 0 6 -18 10 -40 10 -22 0 -40 -4 -40
-10 0 -6 -33 -10 -80 -10 -64 0 -80 3 -80 15 0 12 -16 15 -84 15 l-84 0 -4
-47z"/>
<path d="M7465 3059 c-77 -3 -171 -7 -209 -8 -70 -1 -70 -1 -115 -49 -25 -27
-54 -66 -65 -88 -10 -21 -22 -47 -27 -56 -5 -10 -9 -24 -9 -32 0 -14 48 -36
80 -36 10 0 31 -7 46 -15 26 -13 29 -13 32 1 2 9 10 13 19 10 8 -3 21 -6 28
-6 8 0 20 -7 29 -15 10 -11 21 -13 38 -6 28 10 138 2 156 -11 8 -7 16 -7 25
-1 6 6 70 13 140 16 137 7 207 22 207 44 0 7 6 13 13 13 16 0 52 123 52 182 0
36 -3 44 -12 36 -10 -8 -13 -6 -13 7 0 14 -3 15 -14 6 -8 -7 -16 -8 -18 -3 -5
13 -221 19 -383 11z"/>
<path d="M6920 3010 c-8 -4 -35 -14 -60 -22 l-45 -13 43 -3 c28 -2 53 3 68 13
36 23 31 46 -6 25z"/>
<path d="M550 2855 c0 -16 16 -20 24 -6 3 5 -1 11 -9 15 -9 3 -15 0 -15 -9z"/>
<path d="M3131 2781 c-15 -27 13 -51 35 -29 17 16 9 48 -12 48 -7 0 -18 -9
-23 -19z"/>
<path d="M3346 2791 c-4 -7 -5 -15 -2 -18 9 -9 19 4 14 18 -4 11 -6 11 -12 0z"/>
<path d="M2910 2771 c0 -27 19 -36 37 -18 18 18 9 37 -18 37 -12 0 -19 -7 -19
-19z"/>
<path d="M8422 2675 c0 -16 2 -22 5 -12 2 9 2 23 0 30 -3 6 -5 -1 -5 -18z"/>
<path d="M773 2668 c-2 -5 14 -8 36 -8 32 0 39 -3 35 -15 -4 -10 5 -20 28 -30
35 -14 35 -14 30 -67 -5 -51 -16 -71 -37 -65 -5 2 -11 32 -13 66 l-3 62 -32
-3 c-30 -3 -32 -6 -35 -43 -5 -85 -6 -86 -72 -83 -93 4 -81 -9 17 -17 127 -11
579 1 708 19 128 18 204 32 211 39 9 9 -48 137 -61 137 -17 0 -28 -47 -20 -88
5 -30 4 -32 -47 -47 -29 -9 -88 -19 -131 -22 -90 -7 -97 -3 -97 63 0 27 -7 50
-20 65 -10 13 -19 18 -20 12 0 -7 -5 -13 -11 -13 -6 0 -9 9 -6 20 6 23 16 22
-143 20 -110 -1 -127 -4 -143 -21 -22 -23 -53 -21 -51 4 2 19 3 19 -67 21 -28
0 -53 -2 -56 -6z m334 -100 c-3 -8 -6 -5 -6 6 -1 11 2 17 5 13 3 -3 4 -12 1
-19z"/>
<path d="M340 2590 c0 -49 -4 -70 -12 -70 -18 -1 10 -16 42 -23 l25 -6 -5 66
c-3 39 -11 68 -18 71 -7 2 -12 10 -12 18 0 8 -4 14 -10 14 -6 0 -10 -30 -10
-70z"/>
<path d="M8300 2632 c0 -4 5 -13 12 -20 9 -9 8 -12 -4 -12 -9 0 -20 5 -24 11
-5 8 -13 4 -24 -11 -14 -19 -28 -23 -88 -26 -42 -2 -72 1 -72 6 0 6 -8 10 -18
10 -19 0 -42 -18 -42 -33 0 -6 87 -7 228 -4 234 7 295 13 270 28 -7 5 -21 6
-32 3 -10 -3 -29 -1 -42 6 -19 11 -25 10 -39 -3 -19 -19 -41 -13 -84 26 -32
28 -41 32 -41 19z"/>
<path d="M9160 2618 c-30 -5 -203 -34 -385 -63 -432 -71 -435 -72 -435 -102 0
-33 22 -38 104 -25 39 6 170 27 291 47 121 19 288 47 370 61 178 30 229 55
176 84 -23 12 -44 11 -121 -2z"/>
<path d="M2322 2598 c-28 -30 -91 -160 -106 -217 l-12 -45 -24 38 c-24 40 -96
81 -123 70 -16 -6 -27 -73 -27 -165 0 -50 3 -57 23 -63 34 -9 98 -7 136 4 30
8 38 7 54 -11 15 -17 29 -19 80 -17 68 3 77 15 28 37 -23 11 -31 21 -31 41 0
27 30 62 63 73 24 9 83 -45 113 -105 24 -46 26 -48 68 -48 74 0 101 21 51 40
-15 6 -27 21 -33 42 -7 27 -14 34 -43 39 -19 3 -47 12 -64 20 -36 17 -95 104
-95 139 0 50 21 101 46 112 37 17 23 33 -32 36 -41 2 -53 -1 -72 -20z"/>
<path d="M2605 2549 c-8 -12 14 -31 30 -26 6 2 10 10 10 18 0 17 -31 24 -40 8z"/>
<path d="M3597 2554 c-3 -3 -59 -12 -124 -20 l-118 -13 127 4 c135 6 169 12
146 26 -16 10 -23 11 -31 3z"/>
<path d="M6820 2540 l-55 -19 60 2 c48 2 60 5 63 20 4 20 3 20 -68 -3z"/>
<path d="M2530 2511 c-15 -29 -12 -61 6 -61 44 0 69 41 42 68 -18 18 -36 15
-48 -7z"/>
<path d="M435 2490 c28 -12 57 -12 50 0 -3 6 -21 10 -38 9 -27 0 -29 -2 -12
-9z"/>
<path d="M2628 2419 c-21 -12 -25 -69 -5 -69 25 0 49 26 45 50 -4 27 -16 33
-40 19z"/>
<path d="M2687 2330 c-3 -13 -14 -20 -29 -20 -20 -1 -21 -2 -6 -11 20 -11 68
14 68 37 0 22 -27 17 -33 -6z"/>
<path d="M2600 2325 c0 -8 5 -15 10 -15 6 0 10 7 10 15 0 8 -4 15 -10 15 -5 0
-10 -7 -10 -15z"/>
<path d="M10000 1975 c0 -8 3 -15 8 -15 4 0 90 -16 192 -35 160 -30 206 -35
337 -35 83 0 154 4 157 9 5 8 -208 22 -312 21 -23 -1 -77 8 -120 19 -72 18
-138 31 -224 46 -30 5 -38 3 -38 -10z"/>
<path d="M5 670 c0 -371 1 -523 2 -338 2 186 2 490 0 675 -1 186 -2 34 -2
-337z"/>
</g>
</svg>
